Coordinates
version=1
nRows=17
nColumns=24
inDegrees=yes

Units are S.I. units (second, meters, Newtons, ...)
Angles are in degrees.

endheader
time	pelvis_tilt	pelvis_list	pelvis_rotation	pelvis_tx	pelvis_ty	pelvis_tz	hip_flexion_r	hip_adduction_r	hip_rotation_r	knee_angle_r	ankle_angle_r	subtalar_angle_r	mtp_angle_r	hip_flexion_l	hip_adduction_l	hip_rotation_l	knee_angle_l	ankle_angle_l	subtalar_angle_l	mtp_angle_l	lumbar_extension	lumbar_bending	lumbar_rotation
      2.92500000	      0.34535310	      4.58191148	      7.31853299	     -1.51015074	      0.91418542	      0.20462679	     30.02301450	     -4.69108656	     -4.99510202	    -16.44320372	      9.22346175	     -7.04575524	      0.00000000	    -15.52772597	      8.58589395	      9.33860624	    -19.28871588	     25.45992118	     -3.69702760	      0.00000000	    -12.97025520	     -3.08407949	    -18.63522649
      2.93000000	      0.39141524	      4.39930823	      7.48630908	     -1.50175980	      0.91333551	      0.20478451	     30.06065330	     -4.46665880	     -4.76889536	    -17.40632446	      8.60592513	     -7.42889045	      0.00000000	    -15.45286735	      8.20649103	      8.81204796	    -20.46208483	     25.27543186	     -2.84830858	      0.00000000	    -12.87330335	     -2.80265041	    -18.76432381
      2.93500000	      0.39271568	      4.12759033	      7.53855983	     -1.49328829	      0.91249024	      0.20517071	     30.15691052	     -4.09121693	     -4.46971454	    -18.35896075	      7.81343281	     -7.86948194	      0.00000000	    -15.24735863	      7.73624687	      7.99503275	    -21.73474923	     25.05695174	     -1.84056951	      0.00000000	    -12.69355010	     -2.45443890	    -18.69811984
      2.94000000	      0.37343729	      3.82168043	      7.58328804	     -1.48485985	      0.91172706	      0.20559745	     30.27864585	     -3.67824656	     -4.16188858	    -19.32023725	      6.96081023	     -8.30527249	      0.00000000	    -14.95220533	      7.22541329	      7.19906861	    -23.10274028	     24.72384440	     -0.85641378	      0.00000000	    -12.49416653	     -2.06940680	    -18.61954346
      2.94500000	      0.33555220	      3.46815661	      7.58432298	     -1.47644180	      0.91104655	      0.20608268	     30.43442775	     -3.20379146	     -3.87254682	    -20.29541362	      6.09051906	     -8.69613124	      0.00000000	    -14.57244667	      6.66889022	      6.38121159	    -24.55532799	     24.26279888	      0.10766343	      0.00000000	    -12.26719913	     -1.63674364	    -18.48362660
      2.95000000	      0.26928422	      3.09797315	      7.54296278	     -1.46809088	      0.91039706	      0.20668208	     30.63275369	     -2.66679314	     -3.40759434	    -21.28717860	      5.19067273	     -9.24539309	      0.00000000	    -14.08815665	      6.09295117	      5.52795175	    -26.11184878	     23.68972429	      1.05076047	      0.00000000	    -12.01896870	     -1.20003809	    -18.30093902
      2.95500000	      0.20655046	      2.64603853	      7.52724685	     -1.45966864	      0.90986243	      0.20717693	     30.83709509	     -2.09758815	     -3.19803622	    -22.31286311	      4.46313716	     -9.55119695	      0.00000000	    -13.54089518	      5.41533951	      4.71724715	    -27.76339999	     23.00246263	      1.99422224	      0.00000000	    -11.74924971	     -0.65161328	    -18.10101673
      2.96000000	      0.12612712	      2.19327289	      7.45436728	     -1.45126695	      0.90940660	      0.20778998	     31.05550876	     -1.47949430	     -2.87293454	    -23.32222671	      3.73405602	     -9.98368547	      0.00000000	    -12.91712370	      4.73408980	      3.89092270	    -29.49072167	     22.14176535	      2.92317612	      0.00000000	    -11.46251292	     -0.11649205	    -17.88186764
      2.96500000	      0.02044413	      1.74100295	      7.35600973	     -1.44293010	      0.90893617	      0.20848443	     31.30354307	     -0.81518263	     -2.37710356	    -24.34435303	      3.04997121	    -10.61417205	      0.00000000	    -12.20615752	      4.05700999	      3.12178408	    -31.30123296	     21.16000982	      3.74558307	      0.00000000	    -11.16312074	      0.40105161	    -17.64819369
      2.97000000	     -0.02764944	      1.24420687	      7.26334387	     -1.43447535	      0.90860310	      0.20906036	     31.47476092	     -0.14871419	     -2.15162937	    -25.35900143	      2.67008301	    -10.96491877	      0.00000000	    -11.50932091	      3.31271381	      2.37853529	    -33.17424394	     20.03907221	      4.55244871	      0.00000000	    -10.90451411	      0.99899215	    -17.38801003
      2.97500000	     -0.13400601	      0.76652023	      7.15192255	     -1.42613137	      0.90822470	      0.20980979	     31.68117600	      0.56509028	     -1.68714386	    -26.32283429	      2.23097784	    -11.65932854	      0.00000000	    -10.68417701	      2.58233150	      1.68022768	    -35.12834405	     18.80514195	      5.27308955	      0.00000000	    -10.60506413	      1.53770974	    -17.14415025
      2.98000000	     -0.19418123	      0.27116276	      7.03329710	     -1.41774177	      0.90793539	      0.21050420	     31.81131029	      1.27833983	     -1.38919520	    -27.25002420	      2.05003982	    -12.17638959	      0.00000000	     -9.86762499	      1.82204020	      1.02749942	    -37.12367861	     17.45963103	      5.92656398	      0.00000000	    -10.35241956	      2.11376839	    -16.89633658
      2.98500000	     -0.22596042	     -0.24736024	      6.90328628	     -1.40936558	      0.90769701	      0.21116583	     31.87843845	      2.01246387	     -1.16195518	    -28.12355655	      2.05632205	    -12.59535491	      0.00000000	     -9.03729297	      1.03724394	      0.42483267	    -39.15647195	     16.03420826	      6.44232648	      0.00000000	    -10.13909943	      2.72622598	    -16.61502986
      2.99000000	     -0.28116446	     -0.73411253	      6.75817574	     -1.40102424	      0.90747566	      0.21193184	     31.91634904	      2.74210522	     -0.91450349	    -28.90258812	      2.15046592	    -13.13384487	      0.00000000	     -8.13985733	      0.27461917	     -0.14951644	    -41.21555766	     14.49932153	      6.85510479	      0.00000000	     -9.91112201	      3.28047486	    -16.38119457
      2.99500000	     -0.31030330	     -1.24162959	      6.59688037	     -1.39273562	      0.90732088	      0.21264576	     31.88906530	      3.48548198	     -0.72736848	    -29.61784044	      2.40075363	    -13.51655925	      0.00000000	     -7.23423840	     -0.49249311	     -0.65487930	    -43.28271649	     12.89763881	      7.04447808	      0.00000000	     -9.72669467	      3.87156935	    -16.10276153
      3.00000000	     -0.36761371	     -1.72887939	      6.41876769	     -1.38449202	      0.90715875	      0.21344655	     31.83644795	      4.22593921	     -0.54146013	    -30.23612590	      2.74667588	    -13.95858648	      0.00000000	     -6.25855130	     -1.24708848	     -1.15504117	    -45.36213300	     11.24681583	      7.09056827	      0.00000000	     -9.52218544	      4.42366649	    -15.85578615
      3.00500000	     -0.40356538	     -2.22109167	      6.22428383	     -1.37635273	      0.90708940	      0.21420501	     31.72012789	      4.96306464	     -0.40056132	    -30.77907746	      3.18152297	    -14.26709078	      0.00000000	     -5.27174689	     -1.98263296	     -1.58554250	    -47.42800638	      9.53659503	      6.87647678	      0.00000000	     -9.36891686	      4.99194226	    -15.55716531
